<svg
   width="100"
   height="100"
   viewBox="0 0 100 100"
   version="1.1"
   id="svg6"
   sodipodi:docname="jadwalin.svg"
   xml:space="preserve"
   inkscape:version="1.2.2 (b0a8486541, 2022-12-01)"
   xmlns:inkscape="http://www.inkscape.org/namespaces/inkscape"
   xmlns:sodipodi="http://sodipodi.sourceforge.net/DTD/sodipodi-0.dtd"
   xmlns="http://www.w3.org/2000/svg"
   xmlns:svg="http://www.w3.org/2000/svg"><defs
     id="defs10" /><sodipodi:namedview
     id="namedview8"
     pagecolor="#ffffff"
     bordercolor="#000000"
     borderopacity="0.25"
     inkscape:showpageshadow="2"
     inkscape:pageopacity="0.0"
     inkscape:pagecheckerboard="0"
     inkscape:deskcolor="#d1d1d1"
     showgrid="false"
     inkscape:zoom="5.9043416"
     inkscape:cx="52.33437"
     inkscape:cy="73.505232"
     inkscape:window-width="1920"
     inkscape:window-height="1016"
     inkscape:window-x="0"
     inkscape:window-y="33"
     inkscape:window-maximized="1"
     inkscape:current-layer="svg6" /><rect
     width="100"
     height="100"
     rx="15"
     fill="#3b82f6"
     id="rect2" /><path
     d="m 13.141668,10.828304 c -1.092756,0.464421 -2.294788,1.721091 -2.75921,2.813847 -0.327827,0.737611 -0.3824645,7.075598 -0.3824645,36.470745 0,35.214075 0,35.569221 0.5463785,36.716615 0.327827,0.655654 1.065437,1.475221 1.693772,1.912324 l 1.120075,0.792248 h 36.634659 36.634658 l 0.983481,-0.655653 c 0.546378,-0.382465 1.283989,-1.120076 1.639134,-1.639135 l 0.655654,-0.956162 0.08196,-35.514583 c 0.02732,-19.560339 0,-35.951685 -0.08196,-36.443426 -0.218551,-1.147394 -1.611815,-2.731891 -3.00508,-3.360226 -1.038118,-0.49174 -2.841166,-0.519059 -37.017123,-0.49174 -29.176596,0 -36.08828,0.05464 -36.743934,0.355146 z m 73.351273,1.475221 c 0.51906,0.24587 1.229351,0.874205 1.557178,1.393264 0.601016,0.901524 0.628335,1.092757 0.628335,8.113716 v 7.212193 H 50.022197 11.365939 v -7.184874 c 0,-6.665814 0.02732,-7.212192 0.546378,-8.059078 0.300508,-0.49174 0.928843,-1.120075 1.420584,-1.420583 0.874205,-0.546379 1.447902,-0.546379 36.552701,-0.546379 33.411027,0 35.705815,0.02732 36.607339,0.491741 z m 2.130875,45.923087 -0.08196,27.83797 -0.682973,0.73761 c -1.50254,1.584497 0.901524,1.50254 -37.83669,1.50254 -38.738215,0 -36.334151,0.08196 -37.836691,-1.50254 L 11.50253,86.064582 11.42057,58.226612 11.36593,30.388643 h 38.656258 38.656257 z"
     id="path293"
     style="fill:#ffffff;stroke:none;stroke-width:0.0273189" /><text
     width="80"
     height="auto"
     x="51.037075"
     y="20.545843"
     font-family="sans-serif"
     font-size="13.9205px"
     font-weight="bold"
     fill="#ffffff"
     text-anchor="middle"
     dominant-baseline="middle"
     id="text4"
     style="stroke-width:0.696024">Jadwalin</text><g
     id="g425"
     transform="matrix(0.39544714,0,0,0.39544714,98.940861,-18.823262)"
     style="fill:#ffffff"><path
       style="fill:#ffffff;fill-opacity:1;stroke:none;stroke-width:0.925432;stroke-linecap:round;stroke-linejoin:round;stroke-miterlimit:4;stroke-dasharray:none;stroke-opacity:1"
       d="m -156.4297,135.05185 h 29.30328 v 26.48791 h -28.99546 c 0,-2.4495 -0.30782,-26.48791 -0.30782,-26.48791 z"
       id="rect4485-3-7-5"
       inkscape:connector-curvature="0"
       sodipodi:nodetypes="ccccc" /><path
       style="fill:#ffffff;fill-opacity:1;stroke:none;stroke-width:0.925432;stroke-linecap:round;stroke-linejoin:round;stroke-miterlimit:4;stroke-dasharray:none;stroke-opacity:1"
       d="m -120.39525,135.05186 h 29.303279 v 26.4879 h -28.995459 c 0,-2.4495 -0.30782,-26.4879 -0.30782,-26.4879 z"
       id="rect4485-3-7-5-3"
       inkscape:connector-curvature="0"
       sodipodi:nodetypes="ccccc" /><path
       style="fill:#ffffff;fill-opacity:1;stroke:none;stroke-width:0.925432;stroke-linecap:round;stroke-linejoin:round;stroke-miterlimit:4;stroke-dasharray:none;stroke-opacity:1"
       d="m -84.360804,135.05186 h 29.30328 v 26.4879 h -28.995462 c 0,-2.4495 -0.307818,-26.4879 -0.307818,-26.4879 z"
       id="rect4485-3-7-5-3-6"
       inkscape:connector-curvature="0"
       sodipodi:nodetypes="ccccc" /><path
       style="fill:#ffffff;fill-opacity:1;stroke:none;stroke-width:0.925432;stroke-linecap:round;stroke-linejoin:round;stroke-miterlimit:4;stroke-dasharray:none;stroke-opacity:1"
       d="m -84.360804,168.76146 h 29.30328 v 26.48793 h -28.995462 c 0,-2.4495 -0.307818,-26.48793 -0.307818,-26.48793 z"
       id="rect4485-3-7-5-3-6-7"
       inkscape:connector-curvature="0"
       sodipodi:nodetypes="ccccc" /><path
       style="fill:#ffffff;fill-opacity:1;stroke:none;stroke-width:0.925432;stroke-linecap:round;stroke-linejoin:round;stroke-miterlimit:4;stroke-dasharray:none;stroke-opacity:1"
       d="m -120.39525,168.76146 h 29.303279 v 26.48793 h -28.995459 c 0,-2.4495 -0.30782,-26.48793 -0.30782,-26.48793 z"
       id="rect4485-3-7-5-3-6-7-5"
       inkscape:connector-curvature="0"
       sodipodi:nodetypes="ccccc" /><path
       style="fill:#ffffff;fill-opacity:1;stroke:none;stroke-width:0.925432;stroke-linecap:round;stroke-linejoin:round;stroke-miterlimit:4;stroke-dasharray:none;stroke-opacity:1"
       d="m -156.4297,168.76146 h 29.30328 v 26.48793 h -28.99546 c 0,-2.4495 -0.30782,-26.48793 -0.30782,-26.48793 z"
       id="rect4485-3-7-5-3-6-7-5-3"
       inkscape:connector-curvature="0"
       sodipodi:nodetypes="ccccc" /><path
       style="fill:#ffffff;fill-opacity:1;stroke:none;stroke-width:0.925432;stroke-linecap:round;stroke-linejoin:round;stroke-miterlimit:4;stroke-dasharray:none;stroke-opacity:1"
       d="m -192.46411,168.76146 h 29.30325 v 26.48793 h -28.99543 c 0,-2.4495 -0.30782,-26.48793 -0.30782,-26.48793 z"
       id="rect4485-3-7-5-3-6-7-5-3-5"
       inkscape:connector-curvature="0"
       sodipodi:nodetypes="ccccc" /><path
       style="fill:#ffffff;fill-opacity:1;stroke:none;stroke-width:0.925432;stroke-linecap:round;stroke-linejoin:round;stroke-miterlimit:4;stroke-dasharray:none;stroke-opacity:1"
       d="m -192.46411,202.4711 h 29.30325 v 26.48792 h -28.99543 c 0,-2.4495 -0.30782,-26.48792 -0.30782,-26.48792 z"
       id="rect4485-3-7-5-3-6-7-5-3-5-6"
       inkscape:connector-curvature="0"
       sodipodi:nodetypes="ccccc" /><path
       style="fill:#ffffff;fill-opacity:1;stroke:none;stroke-width:0.925432;stroke-linecap:round;stroke-linejoin:round;stroke-miterlimit:4;stroke-dasharray:none;stroke-opacity:1"
       d="m -156.4297,202.4711 h 29.30328 v 26.48792 h -28.99546 c 0,-2.4495 -0.30782,-26.48792 -0.30782,-26.48792 z"
       id="rect4485-3-7-5-3-6-7-5-3-5-6-2"
       inkscape:connector-curvature="0"
       sodipodi:nodetypes="ccccc" /><path
       style="fill:#ffffff;fill-opacity:1;stroke:none;stroke-width:0.925432;stroke-linecap:round;stroke-linejoin:round;stroke-miterlimit:4;stroke-dasharray:none;stroke-opacity:1"
       d="m -120.39525,202.4711 h 29.303279 v 26.48792 h -28.995459 c 0,-2.4495 -0.30782,-26.48792 -0.30782,-26.48792 z"
       id="rect4485-3-7-5-3-6-7-5-3-5-6-2-9"
       inkscape:connector-curvature="0"
       sodipodi:nodetypes="ccccc" /><path
       style="fill:#ffffff;fill-opacity:1;stroke:none;stroke-width:0.925432;stroke-linecap:round;stroke-linejoin:round;stroke-miterlimit:4;stroke-dasharray:none;stroke-opacity:1"
       d="m -84.360804,202.4711 h 29.30328 v 26.48792 h -28.995462 c 0,-2.4495 -0.307818,-26.48792 -0.307818,-26.48792 z"
       id="rect4485-3-7-5-3-6-7-5-3-5-6-2-9-1"
       inkscape:connector-curvature="0"
       sodipodi:nodetypes="ccccc" /><path
       style="fill:#ffffff;fill-opacity:1;stroke:none;stroke-width:0.925432;stroke-linecap:round;stroke-linejoin:round;stroke-miterlimit:4;stroke-dasharray:none;stroke-opacity:1"
       d="m -120.39525,235.01832 h 29.303279 v 26.48793 h -28.995459 c 0,-2.4495 -0.30782,-26.48793 -0.30782,-26.48793 z"
       id="rect4485-3-7-5-3-6-7-5-3-5-6-2-9-1-2-7"
       inkscape:connector-curvature="0"
       sodipodi:nodetypes="ccccc" /><path
       style="fill:#ffffff;fill-opacity:1;stroke:none;stroke-width:0.925432;stroke-linecap:round;stroke-linejoin:round;stroke-miterlimit:4;stroke-dasharray:none;stroke-opacity:1"
       d="m -156.4297,235.01832 h 29.30328 v 26.48793 h -28.99546 c 0,-2.4495 -0.30782,-26.48793 -0.30782,-26.48793 z"
       id="rect4485-3-7-5-3-6-7-5-3-5-6-2-9-1-2-7-0"
       inkscape:connector-curvature="0"
       sodipodi:nodetypes="ccccc" /><path
       style="fill:#ffffff;fill-opacity:1;stroke:none;stroke-width:0.925432;stroke-linecap:round;stroke-linejoin:round;stroke-miterlimit:4;stroke-dasharray:none;stroke-opacity:1"
       d="m -192.46411,235.01832 h 29.30325 v 26.48793 h -28.99543 c 0,-2.4495 -0.30782,-26.48793 -0.30782,-26.48793 z"
       id="rect4485-3-7-5-3-6-7-5-3-5-6-2-9-1-2-7-0-9"
       inkscape:connector-curvature="0"
       sodipodi:nodetypes="ccccc" /></g></svg>